<svg width="28" height="28" viewBox="0 0 28 28" fill="none" xmlns="http://www.w3.org/2000/svg">
<path d="M27.5 14C27.5 21.4558 21.4558 27.5 14 27.5C6.54416 27.5 0.5 21.4558 0.5 14C0.5 6.54416 6.54416 0.5 14 0.5C21.4558 0.5 27.5 6.54416 27.5 14Z" fill="#1DA1F2" stroke="white"/>
<path d="M11.6 20.163C16.82 20.163 19.6755 15.838 19.6755 12.0875C19.6755 11.9645 19.6755 11.8425 19.667 11.7205C20.2225 11.3188 20.7019 10.8214 21.083 10.2515C20.5651 10.481 20.0156 10.6315 19.453 10.698C20.0462 10.3435 20.4905 9.78559 20.703 9.12802C20.1466 9.45842 19.5378 9.69143 18.903 9.81702C18.475 9.36226 17.9091 9.06119 17.2928 8.96037C16.6765 8.85955 16.0442 8.9646 15.4936 9.25928C14.943 9.55396 14.5048 10.0218 14.2469 10.5906C13.9889 11.1593 13.9255 11.7972 14.0665 12.4055C12.938 12.349 11.834 12.0558 10.8261 11.5449C9.81828 11.034 8.92916 10.3169 8.2165 9.44002C7.85353 10.0648 7.74234 10.8044 7.90555 11.5082C8.06877 12.2121 8.49412 12.8273 9.095 13.2285C8.64341 13.2152 8.20165 13.0934 7.807 12.8735V12.9095C7.80719 13.5648 8.03403 14.1998 8.44905 14.7068C8.86407 15.2139 9.44171 15.5618 10.084 15.6915C9.66627 15.8059 9.22788 15.823 8.8025 15.7415C8.98379 16.3052 9.33663 16.7982 9.81174 17.1515C10.2869 17.5049 10.8605 17.701 11.4525 17.7125C10.4476 18.5024 9.20617 18.9312 7.928 18.93C7.70137 18.9293 7.47498 18.9153 7.25 18.888C8.54785 19.7208 10.0579 20.1626 11.6 20.1605" fill="white"/>
</svg>
