<svg width="36" height="36" viewBox="0 0 36 36" fill="none" xmlns="http://www.w3.org/2000/svg">
<path d="M0 18C0 27.9411 8.05887 36 18 36C27.9411 36 36 27.9411 36 18C36 8.05887 27.9411 0 18 0C8.05887 0 0 8.05887 0 18Z" fill="black" fill-opacity="0.87"/>
<path d="M18.1823 11.7694C18.5802 11.7338 18.9666 11.6172 19.3178 11.4269C19.669 11.2365 19.9776 10.9764 20.2246 10.6624C20.722 10.0449 21.0015 9.28036 21.0198 8.48764C21.0213 8.38496 21.012 8.2824 20.9922 8.18164C20.1272 8.27159 19.3321 8.69721 18.7775 9.36707C18.2713 9.95469 17.9804 10.6973 17.9528 11.4724C17.9531 11.5653 17.9631 11.658 17.9823 11.7489C18.0481 11.7624 18.1151 11.7693 18.1823 11.7694ZM15.785 23.7272C16.7153 23.7272 17.128 23.0844 18.2877 23.0844C19.4667 23.0844 19.7251 23.7073 20.7608 23.7073C21.7771 23.7073 22.4579 22.7385 23.1001 21.7903C23.5454 21.1068 23.8939 20.365 24.1358 19.5859C23.5305 19.3152 23.0174 18.8735 22.6597 18.3151C22.302 17.7568 22.1153 17.1061 22.1223 16.443C22.1237 15.8529 22.2728 15.2725 22.556 14.7547C22.8392 14.237 23.2475 13.7983 23.7436 13.4788C23.4153 12.9927 22.9702 12.5967 22.4492 12.3272C21.9282 12.0576 21.3479 11.9231 20.7614 11.9359C19.6203 11.9359 18.6908 12.6476 18.1058 12.6476C17.4725 12.6476 16.6388 11.9751 15.6513 11.9751C13.7723 11.9751 11.8643 13.5765 11.8643 16.6005C11.8982 18.4311 12.4464 20.2153 13.4463 21.7491C14.194 22.8388 14.8458 23.7272 15.785 23.7272Z" fill="white"/>
</svg>
