<svg width="28" height="28" viewBox="0 0 28 28" fill="none" xmlns="http://www.w3.org/2000/svg">
<path d="M27.5 14C27.5 21.4558 21.4558 27.5 14 27.5C6.54416 27.5 0.5 21.4558 0.5 14C0.5 6.54416 6.54416 0.5 14 0.5C21.4558 0.5 27.5 6.54416 27.5 14Z" fill="#0075FB" stroke="white"/>
<path d="M18.9916 18.8865L19.5601 15.181H16.0051V12.7765C16.0051 11.763 16.5016 10.7765 18.0941 10.7765H19.7106V7.62C18.7615 7.46679 17.8025 7.38324 16.8411 7.37C13.9131 7.37 11.9996 9.1445 11.9996 12.3575V15.1815H8.74414V18.887H11.9986V27.8445C13.3259 28.0522 14.6774 28.0522 16.0046 27.8445V18.8865H18.9916Z" fill="white"/>
</svg>
