<svg width="28" height="28" viewBox="0 0 28 28" fill="none" xmlns="http://www.w3.org/2000/svg">
<path d="M27.5 14C27.5 21.4558 21.4558 27.5 14 27.5C6.54416 27.5 0.5 21.4558 0.5 14C0.5 6.54416 6.54416 0.5 14 0.5C21.4558 0.5 27.5 6.54416 27.5 14Z" fill="white" stroke="white"/>
<path fill-rule="evenodd" clip-rule="evenodd" d="M20.445 14.255C20.4454 13.8023 20.4051 13.3505 20.3245 12.905H14.1045V15.4595H17.6595C17.5859 15.8635 17.4311 16.2485 17.2046 16.591C16.9781 16.9335 16.6844 17.2266 16.3415 17.4525V19.1105H18.4755C19.1255 18.4844 19.6367 17.7288 19.976 16.8925C20.3152 16.0562 20.475 15.158 20.445 14.256V14.255Z" fill="#4285F4"/>
<path fill-rule="evenodd" clip-rule="evenodd" d="M14.1056 20.7095C15.7133 20.753 17.2769 20.1807 18.4766 19.1095L16.3426 17.4515C15.832 17.7793 15.2532 17.9862 14.6504 18.0564C14.0477 18.1265 13.4369 18.0581 12.8646 17.8563C12.2923 17.6545 11.7736 17.3247 11.3482 16.892C10.9227 16.4593 10.6017 15.9351 10.4096 15.3595H8.20312V17.071C8.75267 18.1647 9.59543 19.0842 10.6373 19.7267C11.6791 20.3692 12.8791 20.7095 14.1031 20.7095H14.1056Z" fill="#34A853"/>
<path fill-rule="evenodd" clip-rule="evenodd" d="M10.4093 15.3595C10.1333 14.5456 10.1333 13.6635 10.4093 12.8495V11.1385H8.20032C7.73852 12.0592 7.49805 13.0749 7.49805 14.1048C7.49805 15.1347 7.73852 16.1504 8.20032 17.071L10.4093 15.3595Z" fill="#FBBC05"/>
<path fill-rule="evenodd" clip-rule="evenodd" d="M14.1051 10.1271C15.0436 10.1112 15.9506 10.4658 16.6296 11.1141L18.5241 9.22005C17.3284 8.0976 15.7449 7.48125 14.1051 7.50005C12.881 7.50007 11.6811 7.84033 10.6392 8.48284C9.59738 9.12535 8.75463 10.0448 8.20508 11.1386L10.4091 12.8501C10.6629 12.0668 11.156 11.3828 11.819 10.8944C12.4819 10.4061 13.2812 10.1378 14.1046 10.1276L14.1051 10.1271Z" fill="#EA4335"/>
</svg>
