<svg width="91" height="34" viewBox="0 0 91 34" fill="none" xmlns="http://www.w3.org/2000/svg">
<path d="M86.1908 12.5614C86.2773 12.3707 86.1399 12.1533 85.9324 12.1533H83.8048C83.5828 12.1533 83.3817 12.2841 83.2888 12.4877L80.861 17.8172C80.8346 17.8743 80.7545 17.8743 80.7281 17.8172L78.3321 12.4896C78.2402 12.2841 78.0372 12.1523 77.8143 12.1523H75.603C75.3964 12.1523 75.2581 12.3689 75.3445 12.5596L79.223 21.184C79.2575 21.2605 79.2566 21.348 79.2221 21.4236L76.9234 26.4766C76.8369 26.6673 76.9744 26.8848 77.1818 26.8848H79.3058C79.5278 26.8848 79.7289 26.7539 79.8217 26.5503L86.1908 12.5614Z" fill="black" fill-opacity="0.87"/>
<path d="M72.213 18.4943C71.9709 18.381 71.6779 18.4482 71.5214 18.6666C71.03 19.354 70.2101 19.7714 69.3219 19.7714C67.8969 19.7714 66.6456 18.6998 66.6456 17.1592C66.6456 15.6186 67.8969 14.547 69.3219 14.547C70.2019 14.547 71.0145 14.957 71.5077 15.6333C71.6652 15.849 71.9555 15.9135 72.1957 15.801L73.8701 15.0188C74.0212 14.9478 74.0812 14.7608 73.9984 14.6133C73.0748 12.9732 71.2802 11.9551 69.321 11.9551C66.4836 11.9551 63.9902 14.0881 63.9902 17.1574C63.9902 20.2266 66.4836 22.3596 69.321 22.3596C71.2903 22.3596 73.093 21.3313 74.0121 19.6765C74.094 19.53 74.0339 19.3429 73.8828 19.2729L72.213 18.4943Z" fill="black" fill-opacity="0.87"/>
<path d="M61.3736 22.1874H59.378C59.1423 22.1874 58.9512 21.9939 58.9512 21.7553V12.5845C58.9512 12.3458 59.1423 12.1523 59.378 12.1523H61.3736C61.6093 12.1523 61.8004 12.3458 61.8004 12.5845V21.7553C61.7995 21.9939 61.6093 22.1874 61.3736 22.1874Z" fill="black" fill-opacity="0.87"/>
<path d="M60.3758 10.7104C61.2694 10.7104 61.9938 9.97689 61.9938 9.0721C61.9938 8.16731 61.2694 7.43384 60.3758 7.43384C59.4822 7.43384 58.7578 8.16731 58.7578 9.0721C58.7578 9.97689 59.4822 10.7104 60.3758 10.7104Z" fill="#FF7D32"/>
<path d="M51.4304 11.957C48.593 11.957 46.0996 14.0901 46.0996 17.1593C46.0996 20.2285 48.593 22.3616 51.4304 22.3616C54.2678 22.3616 56.7612 20.2285 56.7612 17.1593C56.7612 14.0901 54.2678 11.957 51.4304 11.957ZM51.4304 19.7715C50.0053 19.7715 48.7541 18.6999 48.7541 17.1593C48.7541 15.6187 50.0053 14.5471 51.4304 14.5471C52.8554 14.5471 54.1067 15.6187 54.1067 17.1593C54.1067 18.6999 52.8545 19.7715 51.4304 19.7715Z" fill="black" fill-opacity="0.87"/>
<path d="M44.9636 12.1523H42.8361C42.614 12.1523 42.4129 12.2832 42.3201 12.4868L39.8922 17.8162C39.8658 17.8734 39.7857 17.8734 39.7594 17.8162L37.3633 12.4896C37.2714 12.2841 37.0685 12.1523 36.8455 12.1523H34.6342C34.4277 12.1523 34.2893 12.3689 34.3758 12.5596L38.5545 21.8502C38.6464 22.0556 38.8494 22.1874 39.0723 22.1874H40.4737C40.6957 22.1874 40.8969 22.0566 40.9897 21.8529L45.2221 12.5614C45.3085 12.3707 45.1711 12.1523 44.9636 12.1523Z" fill="black" fill-opacity="0.87"/>
<path d="M27.7045 4.91387C24.9918 5.82883 19.9403 9.2491 17.1858 17.7731C14.4312 9.2491 9.37888 5.82883 6.66617 4.91387C6.39226 4.82173 6.09378 4.94797 5.97184 5.21241C5.23019 6.82027 3.13264 12.7311 7.55524 21.0588C10.2734 26.1772 15.2611 28.5093 16.7535 29.1128C17.0311 29.2253 17.3396 29.2253 17.6171 29.1128C19.1095 28.5093 24.0972 26.1772 26.8154 21.0588C31.238 12.7302 29.1404 6.82027 28.3988 5.21241C28.2769 4.94797 27.9775 4.82081 27.7045 4.91387ZM15.7462 25.3793C13.9644 24.328 11.5747 22.5017 10.0787 19.685C8.26049 16.261 7.47243 12.9578 7.73542 9.86461C7.76818 9.47854 7.81641 9.11919 7.87374 8.78932C8.38607 9.14959 8.95391 9.61214 9.55269 10.2028C11.6703 12.2953 13.3228 15.1461 14.4631 18.6779L14.4658 18.6871L14.4685 18.6963C15.5905 22.0899 15.7862 24.1944 15.7462 25.3793ZM24.292 19.685C22.7959 22.5017 20.4063 24.328 18.6245 25.3793C18.5844 24.1944 18.7801 22.0899 19.9012 18.6972L19.9039 18.688L19.9067 18.6788C21.0469 15.147 22.6995 12.2962 24.817 10.2037C25.4158 9.61214 25.9837 9.14959 26.496 8.79024C26.5533 9.12011 26.6015 9.47946 26.6343 9.86553C26.8982 12.9578 26.1101 16.261 24.292 19.685Z" fill="#FF7D32"/>
</svg>
